<svg xmlns="http://www.w3.org/2000/svg" xmlns:xlink="http://www.w3.org/1999/xlink" fill="none" version="1.1" width="576" height="388" viewBox="0 0 576 388"><g><g><path d="M142.5,0Q207.5,0,240.25,24.0547Q273,48.1016,273,97.7109Q273,108.234,271.5,121.258Q264,178.883,224.25,206.695Q184.5,234.5,113,234.5L91.5,234.5L70,388L0,388L54.5,0L142.5,0ZM200.5,114.5Q200.5,111.5,200.5,105.5Q200.5,84,185.836,72.25Q171.172,60.5,144.828,60.5L116,60.5L100,174L118,174Q157,174,176.75,158.625Q196.5,143.242,200.5,114.5ZM574.5,121Q565.5,191,507,217.5L547,388L477.5,388L443.5,233Q430,234.5,416,234.5L394.5,234.5L373,388L303,388L357.5,0L445.5,0Q510.5,0,543.25,24Q576,48,576,97.5Q576,108,574.5,121ZM421,173.5Q460,173.5,479.75,158.375Q499.5,143.242,503.5,114.5Q503.5,111.5,503.5,105.5Q503.5,84,488.836,72.25Q474.172,60.5,447.828,60.5L419,60.5L403,173.5L421,173.5Z" fill="#3D3D3D" fill-opacity="1"/></g></g></svg>